<svg xmlns="http://www.w3.org/2000/svg" viewBox="0 0 900 900" preserveAspectRatio="xMidYMid slice">
  <defs>
    <linearGradient id="wood-bg" x1="0" y1="0" x2="1" y2="1">
      <stop offset="0%" stop-color="#f6eee1" />
      <stop offset="100%" stop-color="#e3d1b3" />
    </linearGradient>
  </defs>
  <rect width="900" height="900" fill="url(#wood-bg)" />
  <g transform="translate(160 140)">
    <rect x="80" y="80" width="200" height="480" rx="60" fill="#c78c4f" />
    <rect x="360" y="120" width="220" height="440" rx="72" fill="#c78c4f" opacity="0.92" />
    <rect x="230" y="340" width="140" height="220" rx="48" fill="#a06933" opacity="0.7" />
    <path d="M120 240 C 200 180, 160 120, 200 80" fill="none" stroke="#f9dfa9" stroke-width="22" stroke-linecap="round" opacity="0.7" />
    <path d="M410 220 C 470 170, 490 240, 520 200" fill="none" stroke="#f9dfa9" stroke-width="20" stroke-linecap="round" opacity="0.65" />
    <path d="M160 420 Q 220 360 260 420" fill="none" stroke="#a06933" stroke-width="24" stroke-linecap="round" opacity="0.75" />
    <circle cx="180" cy="220" r="24" fill="#fff6e8" opacity="0.75" />
    <circle cx="220" cy="220" r="24" fill="#fff6e8" opacity="0.65" />
    <circle cx="430" cy="250" r="26" fill="#fff6e8" opacity="0.7" />
    <circle cx="470" cy="250" r="26" fill="#fff6e8" opacity="0.6" />
    <path d="M390 420 Q 450 360 510 420" fill="none" stroke="#a06933" stroke-width="24" stroke-linecap="round" opacity="0.7" />
  </g>
</svg>