<svg xmlns="http://www.w3.org/2000/svg" viewBox="0 0 900 900" preserveAspectRatio="xMidYMid slice">
  <defs>
    <linearGradient id="bg" x1="0" y1="0" x2="1" y2="1">
      <stop offset="0%" stop-color="#fdf1f4" />
      <stop offset="100%" stop-color="#ffe5c7" />
    </linearGradient>
  </defs>
  <rect width="900" height="900" fill="url(#bg)" />
  <g transform="translate(150 140)">
    <rect x="0" y="0" width="600" height="620" rx="48" fill="#0e0e0e12" />
    <rect x="36" y="36" width="528" height="548" rx="36" fill="#fffaf6" stroke="#ffffffb8" stroke-width="6" />
    <path d="M120 340 C 220 280, 320 420, 420 360" fill="none" stroke="#fa6e6e" stroke-width="36" stroke-linecap="round" stroke-linejoin="round" opacity="0.85" />
    <path d="M160 220 C 240 160, 320 200, 400 120" fill="none" stroke="#8361ff" stroke-width="24" stroke-linecap="round" stroke-linejoin="round" opacity="0.75" />
    <path d="M140 440 C 260 500, 360 480, 420 540" fill="none" stroke="#30c3a6" stroke-width="28" stroke-linecap="round" stroke-linejoin="round" opacity="0.8" />
    <circle cx="460" cy="220" r="42" fill="#8361ff" opacity="0.85" />
    <circle cx="220" cy="170" r="28" fill="#30c3a6" opacity="0.7" />
    <circle cx="360" cy="460" r="36" fill="#fa6e6e" opacity="0.6" />
  </g>
  <g transform="translate(620 720)">
    <rect x="-40" y="-80" width="24" height="160" rx="10" fill="#d9b38c" />
    <rect x="-38" y="-60" width="20" height="120" rx="8" fill="#c28d5a" />
    <ellipse cx="-28" cy="-62" rx="22" ry="14" fill="#caa57a" />
  </g>
</svg>