<svg xmlns="http://www.w3.org/2000/svg" viewBox="0 0 900 900" preserveAspectRatio="xMidYMid slice">
  <rect width="900" height="900" rx="64" fill="#101527" />
  <g transform="translate(120 140)">
    <rect x="0" y="0" width="660" height="420" rx="48" fill="#222b3f" />
    <rect x="40" y="40" width="580" height="340" rx="32" fill="#11141f" />
    <path d="M100 300 L240 160 L380 300 Z" fill="#b393ff" opacity="0.68" />
    <path d="M220 320 L320 200 L480 340 Z" fill="#4fd2b8" opacity="0.55" />
    <path d="M320 320 L500 200 L580 320 Z" fill="#ff996d" opacity="0.4" />
    <rect x="420" y="60" width="140" height="32" rx="16" fill="#4fd2b8" opacity="0.7" />
    <rect x="420" y="110" width="100" height="24" rx="12" fill="#b393ff" opacity="0.7" />
    <rect x="420" y="150" width="120" height="24" rx="12" fill="#ff996d" opacity="0.7" />
  </g>
  <rect x="260" y="600" width="380" height="32" rx="16" fill="#1a2132" />
  <rect x="220" y="632" width="460" height="36" rx="18" fill="#1b2334" />
  <rect x="360" y="668" width="180" height="90" rx="24" fill="#1a2232" />
</svg>